<svg width="32" height="32" viewBox="0 0 32 32" fill="none" xmlns="http://www.w3.org/2000/svg">
  <!-- Background gradient matching the logo -->
  <rect width="32" height="32" rx="6" fill="url(#gradient)"/>
  <defs>
    <linearGradient id="gradient" x1="0" y1="0" x2="32" y2="32" gradientUnits="userSpaceOnUse">
      <stop offset="0%" stop-color="#1E3A8A"/>
      <stop offset="100%" stop-color="#1D4ED8"/>
    </linearGradient>
  </defs>
  <!-- Wallet icon simplified for favicon -->
  <path d="M22 10H10C8.89543 10 8 10.8954 8 12V20C8 21.1046 8.89543 22 10 22H22C23.1046 22 24 21.1046 24 20V12C24 10.8954 23.1046 10 22 10Z" stroke="white" stroke-width="1.5" stroke-linecap="round" stroke-linejoin="round" fill="none"/>
  <path d="M20 16C20 16.5523 19.5523 17 19 17C18.4477 17 18 16.5523 18 16C18 15.4477 18.4477 15 19 15C19.5523 15 20 15.4477 20 16Z" fill="white"/>
  <path d="M12 14H16" stroke="white" stroke-width="1.5" stroke-linecap="round"/>
</svg>

